REM DIRINDEX 1\2\4,1\2\5,1\2\6,1\3\7,1\3\8,1\3\9,1\3\10
REM DIRNAME cjc057,folder01,folder02,folder03,folder04,folder05,folder06,folder07,folder08,folder09
TITLE ""
FILE "a_121.mp3" MP3
  TRACK 01 AUDIO
    TITLE "0:"
    INDEX 01 00:00:00
  TRACK 02 AUDIO
    TITLE "4:cjc057_02124"
    INDEX 01 00:00:11
  TRACK 03 AUDIO
    TITLE "0:"
    INDEX 01 00:01:38
  TRACK 04 AUDIO
    TITLE "5:cjc057_02125"
    INDEX 01 00:01:69
  TRACK 05 AUDIO
    TITLE "0:"
    INDEX 01 00:04:25
  TRACK 06 AUDIO
    TITLE "4:cjc057_02126"
    INDEX 01 00:05:30
  TRACK 07 AUDIO
    TITLE "0:"
    INDEX 01 00:06:47
  TRACK 08 AUDIO
    TITLE "5:cjc057_02127"
    INDEX 01 00:07:03
  TRACK 09 AUDIO
    TITLE "0:"
    INDEX 01 00:10:61
  TRACK 10 AUDIO
    TITLE "4:cjc057_02128"
    INDEX 01 00:11:66
  TRACK 11 AUDIO
    TITLE "0:"
    INDEX 01 00:13:12
  TRACK 12 AUDIO
    TITLE "5:cjc057_02129"
    INDEX 01 00:13:43
  TRACK 13 AUDIO
    TITLE "0:"
    INDEX 01 00:15:64
  TRACK 14 AUDIO
    TITLE "4:cjc057_02130"
    INDEX 01 00:16:67
  TRACK 15 AUDIO
    TITLE "0:"
    INDEX 01 00:18:05
  TRACK 16 AUDIO
    TITLE "5:cjc057_02131"
    INDEX 01 00:18:35
  TRACK 17 AUDIO
    TITLE "0:"
    INDEX 01 00:22:03
  TRACK 18 AUDIO
    TITLE "4:cjc057_02132"
    INDEX 01 00:23:08
  TRACK 19 AUDIO
    TITLE "0:"
    INDEX 01 00:24:27
  TRACK 20 AUDIO
    TITLE "5:cjc057_02133"
    INDEX 01 00:24:59
  TRACK 21 AUDIO
    TITLE "0:"
    INDEX 01 00:27:06
  TRACK 22 AUDIO
    TITLE "4:cjc057_02134"
    INDEX 01 00:28:13
  TRACK 23 AUDIO
    TITLE "0:"
    INDEX 01 00:29:25
  TRACK 24 AUDIO
    TITLE "5:cjc057_02135"
    INDEX 01 00:29:54
  TRACK 25 AUDIO
    TITLE "0:"
    INDEX 01 00:31:65
  TRACK 26 AUDIO
    TITLE "4:cjc057_02136"
    INDEX 01 00:32:70
  TRACK 27 AUDIO
    TITLE "0:"
    INDEX 01 00:34:06
  TRACK 28 AUDIO
    TITLE "5:cjc057_02137"
    INDEX 01 00:34:38
  TRACK 29 AUDIO
    TITLE "0:"
    INDEX 01 00:35:27
  TRACK 30 AUDIO
    TITLE "4:cjc057_02138"
    INDEX 01 00:36:35
  TRACK 31 AUDIO
    TITLE "0:"
    INDEX 01 00:37:48
  TRACK 32 AUDIO
    TITLE "5:cjc057_02139"
    INDEX 01 00:38:04
  TRACK 33 AUDIO
    TITLE "0:"
    INDEX 01 00:40:26
  TRACK 34 AUDIO
    TITLE "4:cjc057_02140"
    INDEX 01 00:41:34
  TRACK 35 AUDIO
    TITLE "0:"
    INDEX 01 00:42:47
  TRACK 36 AUDIO
    TITLE "5:cjc057_02141"
    INDEX 01 00:42:74
  TRACK 37 AUDIO
    TITLE "0:"
    INDEX 01 00:45:18
  TRACK 38 AUDIO
    TITLE "4:cjc057_02142"
    INDEX 01 00:46:23
  TRACK 39 AUDIO
    TITLE "0:"
    INDEX 01 00:47:44
  TRACK 40 AUDIO
    TITLE "5:cjc057_02143"
    INDEX 01 00:47:72
  TRACK 41 AUDIO
    TITLE "0:"
    INDEX 01 00:50:03
  TRACK 42 AUDIO
    TITLE "4:cjc057_02144"
    INDEX 01 00:51:09
  TRACK 43 AUDIO
    TITLE "0:"
    INDEX 01 00:52:36
  TRACK 44 AUDIO
    TITLE "5:cjc057_02145"
    INDEX 01 00:52:67
  TRACK 45 AUDIO
    TITLE "0:"
    INDEX 01 00:55:08
  TRACK 46 AUDIO
    TITLE "4:cjc057_02146"
    INDEX 01 00:56:16
  TRACK 47 AUDIO
    TITLE "0:"
    INDEX 01 00:57:31
  TRACK 48 AUDIO
    TITLE "5:cjc057_02147"
    INDEX 01 00:57:62
  TRACK 49 AUDIO
    TITLE "0:"
    INDEX 01 00:59:55
  TRACK 50 AUDIO
    TITLE "4:cjc057_02148"
    INDEX 01 01:00:60
  TRACK 51 AUDIO
    TITLE "0:"
    INDEX 01 01:01:72
  TRACK 52 AUDIO
    TITLE "5:cjc057_02149"
    INDEX 01 01:02:28
  TRACK 53 AUDIO
    TITLE "0:"
    INDEX 01 01:03:45
  TRACK 54 AUDIO
    TITLE "4:cjc057_02150"
    INDEX 01 01:04:52
  TRACK 55 AUDIO
    TITLE "0:"
    INDEX 01 01:05:66
  TRACK 56 AUDIO
    TITLE "5:cjc057_02151"
    INDEX 01 01:06:22
  TRACK 57 AUDIO
    TITLE "0:"
    INDEX 01 01:08:38
  TRACK 58 AUDIO
    TITLE "4:cjc057_02152"
    INDEX 01 01:09:46
  TRACK 59 AUDIO
    TITLE "0:"
    INDEX 01 01:10:59
  TRACK 60 AUDIO
    TITLE "5:cjc057_02153"
    INDEX 01 01:11:15
  TRACK 61 AUDIO
    TITLE "0:"
    INDEX 01 01:13:32
  TRACK 62 AUDIO
    TITLE "4:cjc057_02154"
    INDEX 01 01:14:37
  TRACK 63 AUDIO
    TITLE "0:"
    INDEX 01 01:15:54
  TRACK 64 AUDIO
    TITLE "5:cjc057_02155"
    INDEX 01 01:16:07
  TRACK 65 AUDIO
    TITLE "0:"
    INDEX 01 01:18:53
  TRACK 66 AUDIO
    TITLE "4:cjc057_02156"
    INDEX 01 01:19:60
  TRACK 67 AUDIO
    TITLE "0:"
    INDEX 01 01:21:16
  TRACK 68 AUDIO
    TITLE "5:cjc057_02157"
    INDEX 01 01:21:49
  TRACK 69 AUDIO
    TITLE "0:"
    INDEX 01 01:24:63
  TRACK 70 AUDIO
    TITLE "4:cjc057_02158"
    INDEX 01 01:25:66
  TRACK 71 AUDIO
    TITLE "0:"
    INDEX 01 01:27:12
  TRACK 72 AUDIO
    TITLE "5:cjc057_02159"
    INDEX 01 01:27:44
  TRACK 73 AUDIO
    TITLE "0:"
    INDEX 01 01:29:66
  TRACK 74 AUDIO
    TITLE "4:cjc057_02160"
    INDEX 01 01:30:71
  TRACK 75 AUDIO
    TITLE "0:"
    INDEX 01 01:32:27
  TRACK 76 AUDIO
    TITLE "5:cjc057_02161"
    INDEX 01 01:32:59
  TRACK 77 AUDIO
    TITLE "0:"
    INDEX 01 01:34:71
  TRACK 78 AUDIO
    TITLE "4:cjc057_02162"
    INDEX 01 01:36:01
  TRACK 79 AUDIO
    TITLE "0:"
    INDEX 01 01:37:26
  TRACK 80 AUDIO
    TITLE "5:cjc057_02163"
    INDEX 01 01:37:58
  TRACK 81 AUDIO
    TITLE "0:"
    INDEX 01 01:39:04
  TRACK 82 AUDIO
    TITLE "4:cjc057_02164"
    INDEX 01 01:40:11
  TRACK 83 AUDIO
    TITLE "0:"
    INDEX 01 01:41:40
  TRACK 84 AUDIO
    TITLE "5:cjc057_02165"
    INDEX 01 01:41:71
  TRACK 85 AUDIO
    TITLE "0:"
    INDEX 01 01:45:12
  TRACK 86 AUDIO
    TITLE "4:cjc057_02166"
    INDEX 01 01:46:18
  TRACK 87 AUDIO
    TITLE "0:"
    INDEX 01 01:47:46
  TRACK 88 AUDIO
    TITLE "5:cjc057_02167"
    INDEX 01 01:48:01
  TRACK 89 AUDIO
    TITLE "0:"
    INDEX 01 01:51:38
  TRACK 90 AUDIO
    TITLE "4:cjc057_02168"
    INDEX 01 01:52:42
  TRACK 91 AUDIO
    TITLE "0:"
    INDEX 01 01:53:49
  TRACK 92 AUDIO
    TITLE "5:cjc057_02169"
    INDEX 01 01:54:05
  TRACK 93 AUDIO
    TITLE "0:"
    INDEX 01 01:57:29
  TRACK 94 AUDIO
    TITLE "4:cjc057_02170"
    INDEX 01 01:58:34
  TRACK 95 AUDIO
    TITLE "0:"
    INDEX 01 01:59:55
  TRACK 96 AUDIO
    TITLE "5:cjc057_02171"
    INDEX 01 02:00:12
  TRACK 97 AUDIO
    TITLE "0:"
    INDEX 01 02:01:29
  TRACK 98 AUDIO
    TITLE "4:cjc057_02172"
    INDEX 01 02:02:32
  TRACK 99 AUDIO
    TITLE "0:"
    INDEX 01 02:03:41
  TRACK 100 AUDIO
    TITLE "5:cjc057_02173"
    INDEX 01 02:03:71
  TRACK 101 AUDIO
    TITLE "0:"
    INDEX 01 02:06:61
  TRACK 102 AUDIO
    TITLE "4:cjc057_02174"
    INDEX 01 02:07:69
  TRACK 103 AUDIO
    TITLE "0:"
    INDEX 01 02:09:15
  TRACK 104 AUDIO
    TITLE "5:cjc057_02175"
    INDEX 01 02:09:46
  TRACK 105 AUDIO
    TITLE "0:"
    INDEX 01 02:12:35
  TRACK 106 AUDIO
    TITLE "4:cjc057_02176"
    INDEX 01 02:13:40
  TRACK 107 AUDIO
    TITLE "0:"
    INDEX 01 02:14:53
  TRACK 108 AUDIO
    TITLE "5:cjc057_02177"
    INDEX 01 02:15:07
  TRACK 109 AUDIO
    TITLE "0:"
    INDEX 01 02:17:38
  TRACK 110 AUDIO
    TITLE "4:cjc057_02178"
    INDEX 01 02:18:45
  TRACK 111 AUDIO
    TITLE "0:"
    INDEX 01 02:19:60
  TRACK 112 AUDIO
    TITLE "5:cjc057_02179"
    INDEX 01 02:20:16
  TRACK 113 AUDIO
    TITLE "0:"
    INDEX 01 02:21:51
